<?xml version="1.0" standalone="no"?>
<!DOCTYPE svg PUBLIC "-//W3C//DTD SVG 20010904//EN"
 "http://www.w3.org/TR/2001/REC-SVG-20010904/DTD/svg10.dtd">
<svg version="1.0" xmlns="http://www.w3.org/2000/svg"
 width="500.000000pt" height="500.000000pt" viewBox="0 0 500.000000 500.000000"
 preserveAspectRatio="xMidYMid meet">

<g transform="translate(0.000000,500.000000) scale(0.100000,-0.100000)"
fill="#000000" stroke="none">
<path d="M1956 4048 c-8 -13 -303 -534 -656 -1158 -353 -624 -651 -1150 -662
-1167 l-20 -33 434 0 433 1 195 350 c107 193 204 365 215 382 l20 32 5 -301 5
-301 438 775 437 776 0 333 0 333 -415 0 -415 0 -14 -22z"/>
<path d="M3257 4063 c-28 -46 -1331 -2351 -1334 -2360 -4 -10 40 -13 199 -13
l204 0 670 1182 c368 649 671 1185 672 1190 4 10 -405 11 -411 1z"/>
<path d="M3072 2883 l-673 -1188 203 -3 c111 -1 205 1 209 5 9 9 1329 2341
1336 2360 4 10 -34 13 -199 13 l-204 0 -672 -1187z"/>
<path d="M4134 3900 c-12 -19 -186 -326 -388 -681 l-366 -647 0 -363 0 -364
191 335 c104 184 280 493 390 686 l199 351 -2 359 -3 359 -21 -35z"/>
<path d="M4028 2849 c-70 -123 -246 -434 -391 -691 l-265 -468 206 0 207 0
188 329 187 329 -2 363 -3 363 -127 -225z"/>
<path d="M4013 1956 c-79 -140 -143 -257 -143 -260 0 -3 65 -6 145 -6 l145 0
0 260 c0 143 -1 260 -2 260 -2 0 -67 -115 -145 -254z"/>
<path d="M2368 1411 c-47 -15 -85 -49 -102 -91 -20 -51 -21 -188 -2 -234 34
-82 124 -120 220 -92 71 21 102 60 117 145 21 114 -14 221 -82 257 -37 19
-115 26 -151 15z m123 -90 c28 -28 29 -33 29 -121 0 -88 -1 -93 -29 -121 -48
-47 -116 -38 -146 21 -20 39 -20 161 0 200 30 59 98 68 146 21z"/>
<path d="M630 1200 l0 -210 35 0 34 0 3 141 3 141 47 -109 c70 -163 84 -163
154 -2 l49 112 3 -141 3 -142 34 0 35 0 0 210 0 210 -39 0 -38 0 -59 -135
c-32 -74 -61 -135 -64 -135 -3 0 -31 61 -64 135 l-58 135 -39 0 -39 0 0 -210z"/>
<path d="M1140 1200 l0 -210 135 0 135 0 0 35 0 35 -95 0 -95 0 0 55 0 55 90
0 90 0 0 30 0 29 -87 3 -88 3 -3 53 -3 52 95 0 96 0 0 35 0 35 -135 0 -135 0
0 -210z"/>
<path d="M1472 1378 c3 -33 4 -33 61 -36 l57 -3 0 -174 0 -175 45 0 45 0 0
175 0 175 55 0 55 0 0 35 0 35 -161 0 -160 0 3 -32z"/>
<path d="M1850 1201 l0 -211 40 0 40 0 0 80 0 80 41 0 41 0 36 -80 36 -80 43
0 c24 0 43 2 43 5 0 3 -18 41 -39 84 l-40 78 29 22 c64 47 62 157 -3 203 -28
20 -46 23 -149 26 l-118 4 0 -211z m214 130 c21 -18 20 -80 -1 -103 -12 -13
-31 -18 -75 -18 l-58 0 0 63 c0 35 3 67 8 71 11 12 109 1 126 -13z"/>
<path d="M2690 1199 l0 -211 108 4 c178 5 223 44 230 197 3 75 0 92 -20 131
-36 69 -85 90 -215 90 l-103 0 0 -211z m213 130 c41 -23 61 -136 36 -207 -15
-44 -49 -62 -114 -62 l-55 0 0 138 c0 76 3 142 8 146 9 10 99 -2 125 -15z"/>
<path d="M3147 1207 c-37 -111 -67 -206 -67 -210 0 -4 17 -7 39 -7 38 0 38 1
52 53 l14 52 75 0 75 0 15 -52 15 -53 42 0 c24 0 43 2 43 4 0 2 -32 97 -71
210 l-71 206 -47 0 -46 0 -68 -203z m145 38 l25 -85 -53 0 c-30 0 -54 3 -54 7
0 17 45 163 51 163 3 0 17 -38 31 -85z"/>
<path d="M3452 1378 c3 -33 4 -33 61 -36 l57 -3 0 -174 0 -175 45 0 45 0 0
175 0 175 55 0 55 0 0 35 0 35 -161 0 -160 0 3 -32z"/>
<path d="M3847 1207 c-37 -111 -67 -206 -67 -210 0 -4 17 -7 39 -7 38 0 38 1
52 53 l14 52 75 0 75 0 15 -52 15 -53 42 0 c24 0 43 2 43 4 0 2 -32 97 -71
210 l-71 206 -47 0 -46 0 -68 -203z m145 38 l25 -85 -53 0 c-30 0 -54 3 -54 7
0 17 45 163 51 163 3 0 17 -38 31 -85z"/>
</g>
</svg>
