<?xml version="1.0" standalone="no"?>
<!DOCTYPE svg PUBLIC "-//W3C//DTD SVG 20010904//EN"
 "http://www.w3.org/TR/2001/REC-SVG-20010904/DTD/svg10.dtd">
<svg version="1.0" xmlns="http://www.w3.org/2000/svg"
 width="700.000000pt" height="200.000000pt" viewBox="0 0 700.000000 200.000000"
 preserveAspectRatio="xMidYMid meet">

<g transform="translate(0.000000,200.000000) scale(0.100000,-0.100000)"
fill="#000000" stroke="none">
<path d="M690 1763 c-69 -130 -175 -332 -236 -448 -60 -115 -185 -353 -277
-527 -92 -174 -167 -319 -167 -322 0 -3 114 -6 253 -6 l252 0 129 245 c70 135
131 245 135 245 3 0 6 -19 6 -42 0 -24 2 -106 3 -183 l2 -140 46 85 c55 102
262 498 386 735 l88 170 0 213 0 212 -248 0 -248 0 -124 -237z"/>
<path d="M1460 1748 c-126 -240 -203 -386 -415 -788 -51 -96 -128 -242 -170
-325 -43 -82 -82 -156 -88 -162 -7 -10 17 -13 114 -13 l124 0 145 277 c209
398 357 681 518 987 78 148 142 270 142 272 0 2 -54 4 -119 4 l-119 0 -132
-252z"/>
<path d="M1844 1928 c-34 -68 -116 -224 -324 -618 -227 -429 -430 -817 -436
-832 -6 -17 4 -18 112 -18 l119 0 224 428 c235 447 325 618 485 919 53 101 96
185 96 188 0 3 -54 5 -120 5 l-120 0 -36 -72z"/>
<path d="M2457 1926 c-76 -28 -107 -76 -107 -164 0 -107 64 -167 180 -167 100
0 164 47 179 131 14 81 -14 150 -77 187 -42 25 -127 31 -175 13z m134 -56 c26
-15 49 -62 49 -105 0 -43 -23 -90 -49 -105 -26 -13 -84 -13 -115 1 -70 32 -74
167 -5 205 29 16 93 18 120 4z"/>
<path d="M2750 1922 c0 -5 30 -80 66 -166 l66 -156 38 0 37 0 67 158 c36 86
66 161 66 165 0 5 -16 7 -37 5 l-36 -3 -45 -118 c-25 -65 -49 -114 -53 -110
-4 4 -27 58 -51 118 l-44 110 -37 3 c-20 2 -37 -1 -37 -6z"/>
<path d="M3150 1765 l0 -165 145 0 145 0 0 30 0 30 -110 0 -110 0 0 40 0 40
100 0 100 0 0 30 0 30 -100 0 -100 0 0 35 0 35 105 0 105 0 0 30 0 30 -140 0
-140 0 0 -165z"/>
<path d="M3510 1765 l0 -165 35 0 35 0 0 70 0 70 31 0 c43 0 58 -11 109 -79
43 -58 47 -61 88 -61 49 0 49 -3 -11 77 -21 29 -49 55 -60 59 -20 7 -19 8 13
22 51 20 70 41 70 76 0 74 -48 96 -207 96 l-103 0 0 -165z m233 83 c21 -32 -8
-48 -89 -48 l-74 0 0 35 0 36 76 -3 c59 -2 79 -7 87 -20z"/>
<path d="M3870 1900 l0 -30 60 0 60 0 0 -135 0 -135 35 0 35 0 0 135 0 135 60
0 60 0 0 30 0 30 -155 0 -155 0 0 -30z"/>
<path d="M4230 1765 l0 -165 35 0 35 0 0 165 0 165 -35 0 -35 0 0 -165z"/>
<path d="M4380 1765 l0 -165 35 0 35 0 0 132 c0 72 2 129 5 126 3 -2 19 -54
35 -114 17 -60 33 -117 36 -126 4 -13 16 -18 39 -18 31 0 35 4 44 38 44 158
60 215 65 220 3 3 6 -54 6 -126 l0 -132 35 0 35 0 0 165 0 166 -56 -3 -57 -3
-34 -109 c-19 -59 -37 -106 -40 -103 -3 3 -20 52 -38 109 l-32 103 -57 3 -56
3 0 -166z"/>
<path d="M4840 1765 l0 -165 145 0 145 0 0 30 0 30 -110 0 -110 0 0 40 0 40
100 0 100 0 0 30 0 30 -100 0 -100 0 0 35 0 35 105 0 105 0 0 30 0 30 -140 0
-140 0 0 -165z"/>
<path d="M2084 1828 c-20 -40 -71 -138 -114 -218 -42 -80 -130 -245 -194 -367
l-116 -221 2 -224 3 -223 77 145 c42 80 144 273 227 429 l150 284 3 233 c2
129 2 234 1 234 -2 0 -19 -33 -39 -72z"/>
<path d="M3217 1376 c-75 -27 -107 -76 -107 -163 0 -67 23 -113 71 -142 41
-25 117 -35 162 -23 29 8 41 6 66 -9 40 -24 58 -24 70 0 9 16 6 21 -19 31 -17
7 -30 14 -30 16 0 1 9 19 21 38 25 42 28 130 6 173 -29 56 -95 92 -167 92 -19
0 -52 -6 -73 -13z m134 -56 c43 -23 63 -109 37 -165 -13 -29 -15 -30 -61 -10
-32 13 -36 13 -41 -2 -4 -9 -5 -17 -4 -18 2 -1 12 -7 23 -13 18 -10 15 -11
-18 -12 -47 0 -82 22 -96 62 -23 66 -7 128 40 154 29 16 93 18 120 4z"/>
<path d="M4366 1380 c-44 -14 -76 -49 -76 -85 0 -59 22 -74 168 -114 50 -14
62 -34 37 -61 -13 -15 -31 -20 -66 -20 -40 0 -51 4 -71 28 -19 23 -29 27 -55
22 -31 -5 -31 -5 -18 -37 24 -56 120 -86 204 -63 59 16 91 49 91 95 0 51 -34
79 -123 100 -80 20 -97 29 -97 55 0 22 19 30 71 30 30 0 42 -5 55 -25 12 -19
25 -25 50 -25 19 0 34 4 34 10 0 24 -27 63 -52 76 -37 19 -114 26 -152 14z"/>
<path d="M2360 1215 l0 -165 35 0 35 0 0 70 0 70 31 0 c43 0 58 -11 109 -79
43 -58 47 -61 88 -61 49 0 49 -3 -11 77 -21 29 -49 55 -60 59 -20 7 -19 8 13
22 51 20 70 41 70 76 0 74 -48 96 -207 96 l-103 0 0 -165z m233 83 c21 -32 -8
-48 -89 -48 l-74 0 0 35 0 36 76 -3 c59 -2 79 -7 87 -20z"/>
<path d="M2750 1215 l0 -165 145 0 145 0 0 30 0 30 -110 0 -110 0 0 40 0 40
100 0 100 0 0 30 0 30 -100 0 -100 0 0 35 0 35 105 0 105 0 0 30 0 30 -140 0
-140 0 0 -165z"/>
<path d="M3542 1244 l3 -136 32 -28 c58 -52 183 -52 235 0 28 28 28 29 28 164
l0 136 -35 0 -35 0 0 -123 c0 -143 -7 -157 -77 -157 -67 0 -77 21 -81 161 l-4
119 -35 0 -35 0 4 -136z"/>
<path d="M3930 1215 l0 -165 145 0 145 0 0 30 0 30 -110 0 -110 0 0 40 0 40
100 0 100 0 0 30 0 30 -100 0 -100 0 0 35 0 35 105 0 105 0 0 30 0 30 -140 0
-140 0 0 -165z"/>
<path d="M4630 1350 l0 -30 60 0 60 0 0 -135 0 -135 35 0 35 0 0 135 0 135 60
0 60 0 0 30 0 30 -155 0 -155 0 0 -30z"/>
<path d="M2044 1190 c-197 -375 -280 -532 -331 -627 l-55 -103 121 0 120 0 34
63 c19 34 71 131 116 215 l81 153 -2 227 -3 227 -81 -155z"/>
<path d="M4108 830 c-78 -23 -128 -87 -128 -163 0 -143 151 -216 306 -148 l44
20 0 70 0 71 -80 0 -80 0 0 -30 c0 -29 2 -30 45 -30 41 0 45 -2 45 -23 0 -47
-114 -66 -163 -27 -32 25 -51 81 -43 125 15 80 129 116 184 57 22 -22 33 -26
58 -22 27 4 30 8 24 25 -25 64 -128 101 -212 75z"/>
<path d="M2360 665 l0 -165 35 0 35 0 0 132 c0 72 2 129 5 126 3 -2 19 -54 35
-114 17 -60 33 -117 36 -126 4 -13 16 -18 39 -18 31 0 35 4 44 38 44 158 60
215 65 220 3 3 6 -54 6 -126 l0 -132 35 0 35 0 0 165 0 166 -56 -3 -57 -3 -34
-109 c-19 -59 -37 -106 -40 -103 -3 3 -20 52 -38 109 l-32 103 -57 3 -56 3 0
-166z"/>
<path d="M2847 672 c-37 -88 -67 -163 -67 -166 0 -3 16 -6 35 -6 32 0 37 4 51
40 l16 40 80 0 79 0 17 -40 c16 -36 20 -40 55 -40 20 0 37 2 37 3 0 2 -31 75
-69 163 l-70 159 -48 3 -49 3 -67 -159z m149 21 l23 -53 -55 0 c-62 0 -62 -2
-21 90 12 29 21 40 25 30 3 -8 15 -39 28 -67z"/>
<path d="M3210 665 l0 -165 35 0 35 0 0 106 c0 60 4 103 9 100 5 -3 41 -51 81
-106 67 -93 74 -100 106 -100 l34 0 0 165 0 165 -30 0 -30 0 0 -111 c0 -88 -3
-109 -12 -101 -7 6 -44 56 -83 111 -67 97 -71 100 -107 101 l-38 0 0 -165z"/>
<path d="M3637 672 c-37 -88 -67 -163 -67 -166 0 -3 16 -6 35 -6 32 0 37 4 51
40 l16 40 80 0 79 0 17 -40 c16 -36 20 -40 55 -40 20 0 37 2 37 3 0 2 -31 75
-69 163 l-70 159 -48 3 -49 3 -67 -159z m149 21 l23 -53 -55 0 c-62 0 -62 -2
-21 90 12 29 21 40 25 30 3 -8 15 -39 28 -67z"/>
<path d="M4410 665 l0 -165 145 0 145 0 0 30 0 30 -110 0 -110 0 0 40 0 40
100 0 100 0 0 30 0 30 -100 0 -100 0 0 35 0 35 105 0 105 0 0 30 0 30 -140 0
-140 0 0 -165z"/>
<path d="M4780 665 l0 -165 35 0 35 0 0 132 c0 72 2 129 5 126 3 -2 19 -54 35
-114 17 -60 33 -117 36 -126 4 -13 16 -18 39 -18 31 0 35 4 44 38 44 158 60
215 65 220 3 3 6 -54 6 -126 l0 -132 35 0 35 0 0 165 0 166 -56 -3 -57 -3 -34
-109 c-19 -59 -37 -106 -40 -103 -3 3 -20 52 -38 109 l-32 103 -57 3 -56 3 0
-166z"/>
<path d="M5230 665 l0 -165 145 0 145 0 0 30 0 30 -110 0 -110 0 0 40 0 40
100 0 100 0 0 30 0 30 -100 0 -100 0 0 35 0 35 105 0 105 0 0 30 0 30 -140 0
-140 0 0 -165z"/>
<path d="M5590 665 l0 -165 35 0 35 0 0 106 c0 60 4 103 9 100 5 -3 41 -51 81
-106 67 -93 74 -100 106 -100 l34 0 0 165 0 165 -30 0 -30 0 0 -111 c0 -88 -3
-109 -12 -101 -7 6 -44 56 -83 111 -67 97 -71 100 -107 101 l-38 0 0 -165z"/>
<path d="M5960 800 l0 -30 60 0 60 0 0 -135 0 -135 35 0 35 0 0 135 0 135 60
0 60 0 0 30 0 30 -155 0 -155 0 0 -30z"/>
<path d="M2041 623 c-45 -86 -81 -158 -81 -160 0 -2 38 -3 85 -3 l85 0 0 160
c0 88 -2 160 -4 160 -3 0 -41 -71 -85 -157z"/>
<path d="M10 145 c0 -113 2 -135 15 -135 12 0 15 17 15 90 0 50 3 90 8 90 4 0
20 -34 37 -75 16 -41 35 -75 41 -75 7 0 25 32 40 71 15 38 31 72 36 75 4 3 8
-36 8 -85 0 -85 1 -91 20 -91 20 0 20 5 18 133 -3 125 -4 132 -24 135 -17 2
-26 -11 -55 -84 -19 -47 -38 -87 -43 -88 -4 0 -24 38 -43 87 -27 66 -40 87
-54 87 -18 0 -19 -9 -19 -135z"/>
<path d="M320 145 l0 -135 75 0 c68 0 75 2 75 20 0 18 -7 20 -55 20 l-55 0 0
40 0 40 55 0 c42 0 55 3 55 15 0 12 -13 15 -55 15 l-55 0 0 40 0 40 55 0 c48
0 55 2 55 20 0 18 -7 20 -75 20 l-75 0 0 -135z"/>
<path d="M520 260 c0 -16 7 -20 35 -20 l35 0 0 -115 c0 -108 1 -115 20 -115
19 0 20 7 20 115 l0 115 35 0 c28 0 35 4 35 20 0 19 -7 20 -90 20 -83 0 -90
-1 -90 -20z"/>
<path d="M750 145 c0 -128 1 -135 20 -135 17 0 20 7 20 50 0 47 2 50 26 50 21
0 29 -8 46 -50 16 -40 25 -50 44 -50 21 0 22 3 14 25 -5 14 -16 38 -24 53 -13
26 -13 30 4 45 44 37 33 107 -20 134 -14 7 -49 13 -77 13 l-53 0 0 -135z m119
81 c7 -8 11 -27 9 -43 -3 -25 -7 -28 -45 -31 l-43 -3 0 45 c0 46 0 46 34 46
18 0 39 -6 45 -14z"/>
<path d="M1031 264 c-48 -34 -65 -130 -37 -199 18 -41 42 -55 99 -55 65 0 90
31 95 119 4 74 -12 122 -47 141 -29 15 -84 12 -110 -6z m106 -54 c7 -14 13
-47 13 -73 0 -38 -5 -53 -25 -72 -29 -30 -45 -31 -76 -6 -20 16 -24 28 -24 79
0 46 5 65 20 82 26 29 75 24 92 -10z"/>
<path d="M1250 145 l0 -135 65 0 c56 0 69 3 95 27 25 23 32 38 37 83 11 109
-36 160 -147 160 l-50 0 0 -135z m120 85 c24 -13 41 -72 33 -114 -9 -47 -30
-66 -75 -66 l-38 0 0 95 0 95 31 0 c17 0 39 -5 49 -10z"/>
<path d="M1567 273 c-3 -5 -21 -60 -41 -123 -20 -63 -39 -121 -41 -128 -3 -9
2 -12 17 -10 15 2 24 13 30 36 9 32 10 33 56 30 43 -3 47 -5 56 -35 7 -25 15
-33 32 -33 23 0 23 0 8 48 -8 26 -26 86 -41 135 -23 76 -29 87 -49 87 -13 0
-25 -3 -27 -7z m42 -97 c6 -25 11 -50 11 -55 0 -11 -52 -16 -62 -6 -8 8 24
115 32 110 4 -3 13 -25 19 -49z"/>
<path d="M1710 260 c0 -16 7 -20 35 -20 l35 0 0 -115 c0 -108 1 -115 20 -115
18 0 20 8 22 113 l3 112 33 3 c24 2 32 8 32 23 0 17 -8 19 -90 19 -83 0 -90
-1 -90 -20z"/>
<path d="M1981 257 c-5 -13 -25 -73 -44 -135 l-35 -112 23 0 c18 0 24 7 29 35
7 34 8 35 56 35 48 0 49 -1 56 -35 5 -29 11 -35 31 -35 17 0 23 4 20 13 -3 8
-22 68 -43 135 -34 111 -40 122 -61 122 -15 0 -27 -8 -32 -23z m52 -84 c16
-57 14 -63 -23 -63 -16 0 -31 3 -33 8 -6 11 23 102 33 102 5 0 15 -21 23 -47z"/>
</g>
</svg>
